<svg width="144" height="144" viewBox="0 0 144 144" fill="none" xmlns="http://www.w3.org/2000/svg">
<g clip-path="url(#clip0_707_1178)">
<path opacity="0.2" d="M91.1558 119.731C84.008 119.731 77.2585 117.12 71.9945 112.357C66.736 117.126 59.9865 119.731 52.8333 119.731C45.2011 119.731 38.0264 116.76 32.6279 111.361C27.2401 105.963 24.269 98.7881 24.269 91.1559C24.269 84.0081 26.8795 77.2586 31.6429 71.9947C26.8795 66.7361 24.269 59.992 24.269 52.8388C24.269 45.2066 27.2401 38.0319 32.6386 32.6334C38.0318 27.2402 45.2065 24.2692 52.8387 24.2692C59.9865 24.2692 66.736 26.8796 71.9999 31.643C77.2585 26.8796 84.008 24.2692 91.1558 24.2692C98.788 24.2692 105.963 27.2402 111.356 32.6388C122.153 43.4358 122.487 60.7993 112.346 72C122.481 83.2008 122.153 100.564 111.356 111.361C105.957 116.76 98.7826 119.731 91.1504 119.731H91.1558Z" stroke="url(#paint0_linear_707_1178)" stroke-miterlimit="10"/>
<path opacity="0.4" d="M91.1559 113.272C85.2515 113.272 79.6969 110.974 75.5202 106.797L71.9947 103.272L68.4692 106.797C64.2925 110.974 58.7379 113.272 52.8334 113.272C46.929 113.272 41.3744 110.974 37.1977 106.797C33.0209 102.62 30.7227 97.0711 30.7227 91.1613C30.7227 85.2515 33.0209 79.7022 37.1977 75.5255L40.7231 72.0001L37.1977 68.4746C33.0209 64.2979 30.7227 58.7486 30.7227 52.8388C30.7227 46.929 33.0209 41.3797 37.1977 37.203C41.3744 33.0263 46.929 30.728 52.8334 30.728C58.7379 30.728 64.2925 33.0263 68.4692 37.203L71.9947 40.7285L75.5202 37.203C79.6969 33.0263 85.2515 30.728 91.1559 30.728C97.0604 30.728 102.615 33.0263 106.792 37.203C115.414 45.8256 115.414 59.852 106.792 68.4746L103.266 72.0001L106.792 75.5255C115.414 84.1481 115.414 98.1745 106.792 106.797C102.615 110.974 97.0604 113.272 91.1559 113.272Z" stroke="url(#paint1_linear_707_1178)" stroke-miterlimit="10"/>
<path opacity="0.6" d="M91.1556 106.813C86.9735 106.813 83.0443 105.182 80.0894 102.227L71.9997 94.1377L63.91 102.227C60.9551 105.182 57.0259 106.813 52.8438 106.813C48.6617 106.813 44.7326 105.182 41.7777 102.227C38.8228 99.2725 37.1919 95.338 37.1919 91.1613C37.1919 86.9846 38.8228 83.0501 41.7777 80.0951L49.8674 72.0054L41.7777 63.9157C38.8228 60.9608 37.1919 57.0317 37.1919 52.8496C37.1919 48.6675 38.8174 44.7383 41.7777 41.7834C44.7326 38.8285 48.6617 37.1976 52.8438 37.1976C57.0259 37.1976 60.9551 38.8285 63.91 41.7834L71.9997 49.8731L80.0894 41.7834C83.0443 38.8285 86.9788 37.1976 91.1556 37.1976C95.3323 37.1976 99.2668 38.8285 102.222 41.7834C108.325 47.887 108.325 57.8175 102.222 63.9211L94.132 72.0108L102.222 80.1005C108.325 86.2041 108.325 96.1346 102.222 102.238C99.2614 105.193 95.3323 106.824 91.1502 106.824L91.1556 106.813Z" stroke="url(#paint2_linear_707_1178)" stroke-miterlimit="10"/>
<path d="M84.9982 72.0001L97.6575 59.3407C101.248 55.7507 101.248 49.927 97.6575 46.3369C94.0675 42.7469 88.2437 42.7469 84.6537 46.3369L71.9944 58.9963L59.335 46.3369C55.745 42.7469 49.9212 42.7469 46.3312 46.3369C42.7412 49.927 42.7412 55.7507 46.3312 59.3407L58.9905 72.0001L46.3312 84.6594C42.7412 88.2495 42.7412 94.0732 46.3312 97.6632C49.9212 101.253 55.745 101.253 59.335 97.6632L71.9944 85.0039L84.6537 97.6632C88.2437 101.253 94.0675 101.253 97.6575 97.6632C101.248 94.0732 101.248 88.2495 97.6575 84.6594L84.9982 72.0001Z" stroke="#97FCE4" stroke-miterlimit="10"/>
</g>
<defs>
<linearGradient id="paint0_linear_707_1178" x1="37.9458" y1="125.268" x2="94.5399" y2="1.7579" gradientUnits="userSpaceOnUse">
<stop stop-color="#7DFFD0"/>
<stop offset="0.55" stop-color="#7DFFD0" stop-opacity="0.2"/>
<stop offset="1" stop-color="#7DFFD0" stop-opacity="0.46"/>
</linearGradient>
<linearGradient id="paint1_linear_707_1178" x1="42.5501" y1="118.06" x2="91.4823" y2="11.2586" gradientUnits="userSpaceOnUse">
<stop stop-color="#7DFFD0"/>
<stop offset="0.55" stop-color="#7DFFD0" stop-opacity="0.2"/>
<stop offset="1" stop-color="#7DFFD0" stop-opacity="0.46"/>
</linearGradient>
<linearGradient id="paint2_linear_707_1178" x1="47.1666" y1="110.862" x2="88.4459" y2="20.7805" gradientUnits="userSpaceOnUse">
<stop stop-color="#7DFFD0"/>
<stop offset="0.55" stop-color="#7DFFD0" stop-opacity="0.2"/>
<stop offset="1" stop-color="#7DFFD0" stop-opacity="0.46"/>
</linearGradient>
<clipPath id="clip0_707_1178">
<rect width="95.9839" height="96" fill="white" transform="translate(24 24)"/>
</clipPath>
</defs>
</svg>
